REM DIRINDEX 1\2,1\3,1\4,1\6,1\5\7,1\5\8
REM DIRNAME cjc114,folder01,folder02,folder03,folder04,folder05,folder06,folder07
TITLE ""
FILE "DB4500_5th_2A_35.mp3" MP3
  TRACK 01 AUDIO
    TITLE "0:"
    INDEX 01 00:00:00
  TRACK 02 AUDIO
    TITLE "2:cjc114_1108"
    INDEX 01 00:00:01
  TRACK 03 AUDIO
    TITLE "0:"
    INDEX 01 00:01:01
  TRACK 04 AUDIO
    TITLE "3:cjc114_1109"
    INDEX 01 00:01:30
  TRACK 05 AUDIO
    TITLE "0:"
    INDEX 01 00:02:24
  TRACK 06 AUDIO
    TITLE "4:cjc114_1110"
    INDEX 01 00:02:51
  TRACK 07 AUDIO
    TITLE "0:"
    INDEX 01 00:05:34
  TRACK 08 AUDIO
    TITLE "4:cjc114_1111"
    INDEX 01 00:06:20
  TRACK 09 AUDIO
    TITLE "0:"
    INDEX 01 00:09:28
  TRACK 10 AUDIO
    TITLE "2:cjc114_1112"
    INDEX 01 00:10:04
  TRACK 11 AUDIO
    TITLE "0:"
    INDEX 01 00:11:07
  TRACK 12 AUDIO
    TITLE "3:cjc114_1113"
    INDEX 01 00:11:39
  TRACK 13 AUDIO
    TITLE "0:"
    INDEX 01 00:12:60
  TRACK 14 AUDIO
    TITLE "4:cjc114_1114"
    INDEX 01 00:13:14
  TRACK 15 AUDIO
    TITLE "0:"
    INDEX 01 00:15:70
  TRACK 16 AUDIO
    TITLE "4:cjc114_1115"
    INDEX 01 00:16:42
  TRACK 17 AUDIO
    TITLE "0:"
    INDEX 01 00:19:46
  TRACK 18 AUDIO
    TITLE "2:cjc114_1116"
    INDEX 01 00:20:24
  TRACK 19 AUDIO
    TITLE "0:"
    INDEX 01 00:21:27
  TRACK 20 AUDIO
    TITLE "3:cjc114_1117"
    INDEX 01 00:21:57
  TRACK 21 AUDIO
    TITLE "0:"
    INDEX 01 00:22:60
  TRACK 22 AUDIO
    TITLE "4:cjc114_1118"
    INDEX 01 00:23:12
  TRACK 23 AUDIO
    TITLE "0:"
    INDEX 01 00:26:40
  TRACK 24 AUDIO
    TITLE "2:cjc114_1119"
    INDEX 01 00:27:16
  TRACK 25 AUDIO
    TITLE "0:"
    INDEX 01 00:28:19
  TRACK 26 AUDIO
    TITLE "3:cjc114_1120"
    INDEX 01 00:28:47
  TRACK 27 AUDIO
    TITLE "0:"
    INDEX 01 00:30:06
  TRACK 28 AUDIO
    TITLE "4:cjc114_1121"
    INDEX 01 00:30:36
  TRACK 29 AUDIO
    TITLE "0:"
    INDEX 01 00:33:69
  TRACK 30 AUDIO
    TITLE "2:cjc114_1122"
    INDEX 01 00:34:49
  TRACK 31 AUDIO
    TITLE "0:"
    INDEX 01 00:35:51
  TRACK 32 AUDIO
    TITLE "3:cjc114_1123"
    INDEX 01 00:36:01
  TRACK 33 AUDIO
    TITLE "0:"
    INDEX 01 00:38:06
  TRACK 34 AUDIO
    TITLE "4:cjc114_1124"
    INDEX 01 00:38:33
  TRACK 35 AUDIO
    TITLE "0:"
    INDEX 01 00:42:00
  TRACK 36 AUDIO
    TITLE "4:cjc114_1125"
    INDEX 01 00:43:17
  TRACK 37 AUDIO
    TITLE "0:"
    INDEX 01 00:46:06
  TRACK 38 AUDIO
    TITLE "2:cjc114_1126"
    INDEX 01 00:46:56
  TRACK 39 AUDIO
    TITLE "0:"
    INDEX 01 00:47:56
  TRACK 40 AUDIO
    TITLE "3:cjc114_1127"
    INDEX 01 00:48:10
  TRACK 41 AUDIO
    TITLE "0:"
    INDEX 01 00:49:39
  TRACK 42 AUDIO
    TITLE "4:cjc114_1128"
    INDEX 01 00:49:69
  TRACK 43 AUDIO
    TITLE "0:"
    INDEX 01 00:54:19
  TRACK 44 AUDIO
    TITLE "2:cjc114_1129"
    INDEX 01 00:54:72
  TRACK 45 AUDIO
    TITLE "0:"
    INDEX 01 00:56:12
  TRACK 46 AUDIO
    TITLE "3:cjc114_1130"
    INDEX 01 00:56:39
  TRACK 47 AUDIO
    TITLE "0:"
    INDEX 01 00:57:48
  TRACK 48 AUDIO
    TITLE "4:cjc114_1131"
    INDEX 01 00:58:01
  TRACK 49 AUDIO
    TITLE "0:"
    INDEX 01 01:00:68
  TRACK 50 AUDIO
    TITLE "2:cjc114_1132"
    INDEX 01 01:01:42
  TRACK 51 AUDIO
    TITLE "0:"
    INDEX 01 01:02:57
  TRACK 52 AUDIO
    TITLE "3:cjc114_1133"
    INDEX 01 01:03:10
  TRACK 53 AUDIO
    TITLE "0:"
    INDEX 01 01:04:43
  TRACK 54 AUDIO
    TITLE "4:cjc114_1134"
    INDEX 01 01:04:68
  TRACK 55 AUDIO
    TITLE "0:"
    INDEX 01 01:07:41
  TRACK 56 AUDIO
    TITLE "2:cjc114_1135"
    INDEX 01 01:08:21
  TRACK 57 AUDIO
    TITLE "0:"
    INDEX 01 01:09:24
  TRACK 58 AUDIO
    TITLE "3:cjc114_1136"
    INDEX 01 01:09:52
  TRACK 59 AUDIO
    TITLE "0:"
    INDEX 01 01:11:05
  TRACK 60 AUDIO
    TITLE "4:cjc114_1137"
    INDEX 01 01:11:33
  TRACK 61 AUDIO
    TITLE "0:"
    INDEX 01 01:14:65
  TRACK 62 AUDIO
    TITLE "2:cjc114_1138"
    INDEX 01 01:15:44
  TRACK 63 AUDIO
    TITLE "0:"
    INDEX 01 01:16:60
  TRACK 64 AUDIO
    TITLE "3:cjc114_1139"
    INDEX 01 01:17:14
  TRACK 65 AUDIO
    TITLE "0:"
    INDEX 01 01:18:53
  TRACK 66 AUDIO
    TITLE "4:cjc114_1140"
    INDEX 01 01:19:07
  TRACK 67 AUDIO
    TITLE "0:"
    INDEX 01 01:22:21
  TRACK 68 AUDIO
    TITLE "2:cjc114_1141"
    INDEX 01 01:22:74
  TRACK 69 AUDIO
    TITLE "0:"
    INDEX 01 01:24:20
  TRACK 70 AUDIO
    TITLE "3:cjc114_1142"
    INDEX 01 01:24:49
  TRACK 71 AUDIO
    TITLE "0:"
    INDEX 01 01:25:58
  TRACK 72 AUDIO
    TITLE "4:cjc114_1143"
    INDEX 01 01:26:11
  TRACK 73 AUDIO
    TITLE "0:"
    INDEX 01 01:29:27
